<svg version="1.1" xmlns="http://www.w3.org/2000/svg" width="100%" viewBox="325 388 260 188" xml:space="preserve">
<g fill="#FFFFFF">
    <path d="M389.498,518.718 C400.181,513.321 411.046,508.248 421.49,502.422 C429.668,497.861 436.909,497.948 444.741,503.208 C454.125,509.51 464.17,514.83 473.518,521.18 C476.847,523.442 479.867,527.098 481.424,530.793 C483.425,535.541 481.712,540.413 477.463,543.711 C472.991,547.182 467.973,547.683 462.994,544.852 C454.461,540 445.962,535.076 437.605,529.928 C434.061,527.745 431.046,527.804 427.397,529.717 C401.317,543.389 375.155,556.903 349.018,570.466 C347.837,571.08 346.67,571.726 345.459,572.277 C338.914,575.259 332.913,574.205 329.159,569.443 C325.36,564.624 325.508,557.701 329.412,552.306 C354.393,517.784 379.35,483.244 404.324,448.716 C416.518,431.858 428.73,415.013 440.938,398.166 C448.676,387.486 462.649,387.314 470.442,398.041 C487.956,422.15 505.308,446.377 522.73,470.553 C542.195,497.564 561.678,524.563 581.124,551.589 C586.444,558.984 585.873,566.94 579.816,571.546 C573.491,576.355 564.01,574.807 558.649,567.602 C550.006,555.986 541.658,544.151 533.217,532.387 C507.628,496.726 482.053,461.055 456.015,424.749 C433.467,455.767 411.186,486.416 388.524,517.551 C388.595,518.264 389.046,518.491 389.498,518.718 Z"/>
</g>
</svg>