<svg version="1.1" xmlns="http://www.w3.org/2000/svg" width="100%" viewBox="0 0 1536 1024" xml:space="preserve">
<g fill="#000000">
    <path d="M389.498,518.718 C400.181,513.321 411.046,508.248 421.49,502.422 C429.668,497.861 436.909,497.948 444.741,503.208 C454.125,509.51 464.17,514.83 473.518,521.18 C476.847,523.442 479.867,527.098 481.424,530.793 C483.425,535.541 481.712,540.413 477.463,543.711 C472.991,547.182 467.973,547.683 462.994,544.852 C454.461,540 445.962,535.076 437.605,529.928 C434.061,527.745 431.046,527.804 427.397,529.717 C401.317,543.389 375.155,556.903 349.018,570.466 C347.837,571.08 346.67,571.726 345.459,572.277 C338.914,575.259 332.913,574.205 329.159,569.443 C325.36,564.624 325.508,557.701 329.412,552.306 C354.393,517.784 379.35,483.244 404.324,448.716 C416.518,431.858 428.73,415.013 440.938,398.166 C448.676,387.486 462.649,387.314 470.442,398.041 C487.956,422.15 505.308,446.377 522.73,470.553 C542.195,497.564 561.678,524.563 581.124,551.589 C586.444,558.984 585.873,566.94 579.816,571.546 C573.491,576.355 564.01,574.807 558.649,567.602 C550.006,555.986 541.658,544.151 533.217,532.387 C507.628,496.726 482.053,461.055 456.015,424.749 C433.467,455.767 411.186,486.416 388.524,517.551 C388.595,518.264 389.046,518.491 389.498,518.718 Z"/>
    <path d="M735.854,471.994 C735.853,474.951 735.853,477.411 735.853,480.303 C748.933,480.303 761.687,480.303 774.769,480.303 C774.769,485.447 774.769,490.162 774.769,495.206 C761.913,495.206 749.115,495.206 736.097,495.206 C736.097,501.807 736.097,508.091 736.097,514.812 C751.006,514.812 765.927,514.812 781.096,514.812 C781.096,520.03 781.096,524.819 781.096,529.932 C760.24,529.932 739.322,529.932 718.037,529.932 C718.037,502.219 718.037,474.336 718.037,446.221 C738.522,446.221 758.931,446.221 779.621,446.221 C779.621,451.203 779.621,455.97 779.621,461.185 C765.253,461.185 750.826,461.185 735.855,461.185 C735.855,464.913 735.855,468.206 735.854,471.994 Z"/>
    <path d="M933.763,516.251 C928.348,509.486 923.163,502.993 917.926,496.435 C911.67,500.792 907.856,505.937 909.046,514.122 C909.78,519.169 909.182,524.41 909.182,529.892 C903.159,529.892 897.26,529.892 891.172,529.892 C891.172,502.085 891.172,474.322 891.172,446.252 C896.938,446.252 902.669,446.252 908.746,446.252 C908.746,458.074 908.746,469.813 908.746,482.796 C911.795,479.821 914.165,477.677 916.342,475.353 C925.098,466.006 933.762,456.574 942.569,447.275 C943.314,446.487 944.853,446.148 946.034,446.126 C952.169,446.015 958.307,446.075 966.01,446.075 C953.531,459.314 941.897,471.657 930.209,484.056 C942.938,499.302 955.47,514.313 968.701,530.16 C960.538,530.16 953.577,530.247 946.624,530.066 C945.585,530.039 944.38,528.922 943.593,528.014 C940.322,524.245 937.182,520.363 933.763,516.251 Z"/>
    <path d="M814.337,512.942 C813.857,514.107 813.544,514.877 813.221,515.644 C806.413,531.841 806.412,531.841 788.089,529.805 C794.158,516.447 800.182,503.26 806.144,490.046 C812.23,476.557 818.371,463.091 824.215,449.498 C825.426,446.681 826.887,445.819 829.747,445.947 C834.223,446.147 838.714,446.0 843.252,446.0 C855.798,473.896 868.26,501.604 881.123,530.205 C874.494,530.205 868.428,530.31 862.375,530.079 C861.566,530.048 860.57,528.428 860.09,527.352 C857.86,522.345 855.781,517.271 853.786,512.546 C840.596,512.546 827.548,512.546 814.337,512.942 Z M825.621,486.078 C824.111,489.541 822.601,493.003 820.978,496.723 C829.943,496.723 838.447,496.723 847.576,496.723 C843.159,486.348 838.944,476.45 834.382,465.733 C831.301,472.897 828.616,479.141 825.621,486.078 Z"/>
    <path d="M652.632,518.953 C652.63,522.9 652.63,526.355 652.63,530.23 C647.518,530.23 642.89,530.249 638.262,530.218 C636.962,530.209 635.663,530.05 634.245,529.952 C634.245,502.086 634.245,474.455 634.245,446.798 C634.458,446.595 634.699,446.17 634.932,446.173 C649.724,446.394 664.589,445.819 679.284,447.138 C693.711,448.432 701.852,457.038 704.144,470.355 C706.469,483.866 699.179,496.283 686.295,501.309 C677.16,504.873 677.16,504.873 658.211,504.362 C656.566,504.386 654.921,504.366 652.634,504.366 C652.634,509.221 652.634,513.841 652.632,518.953 Z M677.849,487.7 C684.105,484.312 686.98,479.176 685.95,473.227 C684.835,466.79 680.989,462.788 673.803,461.965 C666.954,461.181 660.008,461.256 652.834,460.942 C652.834,470.836 652.834,479.93 652.834,490.247 C661.09,489.472 669.099,488.719 677.849,487.7 Z"/>
    <path d="M1203.131,513.901 C1199.152,525.088 1190.224,529.138 1180.032,529.704 C1166.13,530.475 1152.153,529.896 1137.981,529.896 C1137.981,502.111 1137.981,474.384 1137.981,445.49 C1152.744,446.07 1167.496,445.928 1182.07,447.469 C1192.158,448.536 1198.131,455.596 1199.521,464.694 C1201.065,474.799 1196.881,482.047 1188.913,486.398 C1192.92,489.885 1197.654,493.056 1201.117,497.272 C1204.904,501.883 1204.547,507.821 1203.131,513.901 Z M1188.529,495.77 C1175.039,488.77 1160.692,493.133 1147.006,491.747 C1147.006,502.494 1147.006,512.373 1147.006,522.405 C1151.691,522.405 1156.012,522.573 1160.315,522.368 C1167.742,522.016 1175.367,522.359 1182.533,520.744 C1195.42,517.839 1198.417,505.616 1188.529,495.77 Z M1146.679,462.533 C1146.679,469.471 1146.679,476.408 1146.679,482.886 C1157.246,482.886 1167.379,483.467 1177.41,482.707 C1185.85,482.067 1190.291,476.509 1190.35,468.884 C1190.403,461.917 1185.697,456.085 1177.704,455.218 C1167.553,454.116 1157.281,454.127 1146.687,453.642 C1146.687,456.926 1146.687,459.236 1146.679,462.533 Z"/>
    <path d="M1071.643,462.507 C1073.233,458.981 1074.632,455.784 1076.084,452.612 C1079.303,445.581 1079.314,445.586 1087.485,446.286 C1099.829,474.012 1112.169,501.726 1124.542,529.516 C1115.233,531.189 1115.266,531.174 1111.773,523.198 C1109.582,518.193 1108.521,511.345 1104.66,508.797 C1100.796,506.247 1094.08,507.948 1088.614,507.909 C1080.622,507.852 1072.628,508.017 1064.64,507.846 C1061.955,507.788 1060.56,508.448 1059.473,511.118 C1056.908,517.422 1053.857,523.529 1050.884,529.971 C1047.955,529.971 1044.856,529.971 1041.193,529.971 C1051.368,507.417 1061.422,485.132 1071.643,462.507 Z M1069.685,499.823 C1080.096,499.823 1090.508,499.823 1101.777,499.823 C1095.529,485.451 1089.553,471.703 1083.311,457.343 C1076.878,471.628 1070.665,485.425 1064.184,499.817 C1066.193,499.817 1067.467,499.817 1069.685,499.823 Z"/>
    <path d="M1003.999,530.237 C996.195,530.237 988.892,530.237 981.621,530.237 C981.621,501.994 981.621,474.241 981.621,446.256 C984.504,446.256 987.113,446.256 990.097,446.256 C990.097,471.316 990.097,496.391 990.097,521.872 C1005.532,521.872 1020.606,521.872 1035.987,521.872 C1035.987,524.839 1035.987,527.403 1035.987,530.237 C1025.394,530.237 1014.947,530.237 1003.999,530.237 Z"/>
</g>
</svg>